<svg width="74" height="84" viewBox="0 0 74 84" fill="none" xmlns="http://www.w3.org/2000/svg">
<g id="Pirol">
<rect id="Right Leg" x="33.0738" y="61.7182" width="3.54363" height="8.26846" fill="#F1C40F"/>
<rect id="Left Leg" x="25.396" y="61.7182" width="3.54363" height="8.26846" fill="#F1C40F"/>
<path id="Lower Beak" d="M4.71476 14.8307C3.79161 14.5322 3.79161 13.2262 4.71477 12.9277L11.538 10.7216C12.1838 10.5128 12.8456 10.9944 12.8456 11.6731L12.8456 16.0853C12.8456 16.764 12.1838 17.2456 11.538 17.0368L4.71476 14.8307Z" fill="#E67E22"/>
<path id="Top Beak" d="M2.94295 10.6965C2.0198 10.398 2.0198 9.09193 2.94295 8.79346L9.7662 6.5874C10.412 6.37859 11.0738 6.86014 11.0738 7.5389L11.0738 11.951C11.0738 12.6298 10.412 13.1113 9.7662 12.9025L2.94295 10.6965Z" fill="#E67E22"/>
<path id="Body" d="M8.6622 12.4027C8.6622 6.49665 13.9383 0 20.0805 0C26.2228 0 29.1955 2.80208 30.3964 4.00298C31.5973 5.20389 73.6287 83.1111 73.6287 83.1111H66.3806L52.2685 59.3557C52.2685 59.3557 34.0582 66.443 22.8367 61.1275C11.6152 55.8121 9.5481 46.0671 8.6622 36.6175C7.77629 27.1678 8.6622 18.3087 8.6622 12.4027Z" fill="#F1C40F"/>
<circle id="Eye" cx="16.8322" cy="8.85906" r="2.65772" fill="#2C3E50"/>
<path id="Wing" d="M25.6316 52.7404C33.5901 63.5143 46.7603 67.2855 55.0479 61.1636L26.2276 22.1477C17.94 28.2696 17.6731 41.9664 25.6316 52.7404Z" fill="#2C3E50"/>
</g>
</svg>
